<?xml version="1.0" standalone="no"?>
<!DOCTYPE svg PUBLIC "-//W3C//DTD SVG 20010904//EN"
 "http://www.w3.org/TR/2001/REC-SVG-20010904/DTD/svg10.dtd">
<svg version="1.0" xmlns="http://www.w3.org/2000/svg"
 width="512.000000pt" height="512.000000pt" viewBox="0 0 512.000000 512.000000"
 preserveAspectRatio="xMidYMid meet">

<g transform="translate(0.000000,512.000000) scale(0.100000,-0.100000)"
fill="#000000" stroke="none">
<path d="M3841 5081 c-33 -29 -346 -577 -356 -623 -7 -31 21 -112 35 -103 5 3
18 -6 31 -19 13 -13 28 -22 34 -20 6 3 22 -6 35 -18 13 -12 29 -23 36 -23 6 0
22 -9 36 -19 l26 -19 -26 -46 c-13 -25 -51 -91 -82 -146 -32 -55 -70 -122 -85
-150 -15 -27 -63 -111 -105 -185 -43 -74 -87 -151 -98 -172 -11 -20 -118 -209
-238 -420 -274 -482 -551 -972 -575 -1018 -11 -19 -19 -46 -19 -60 0 -27 34
-90 49 -90 5 0 56 -28 113 -61 119 -72 152 -91 228 -132 30 -16 60 -33 65 -37
10 -8 70 -41 140 -79 55 -29 98 -27 134 7 23 22 147 233 321 547 12 22 26 45
30 50 4 6 21 35 37 65 17 30 42 75 57 100 14 25 42 74 61 110 20 36 46 83 60
105 13 22 31 54 39 70 9 17 20 37 26 45 5 8 35 62 67 118 32 57 68 120 80 140
12 21 29 54 38 75 10 20 21 37 26 37 5 0 9 5 9 11 0 9 15 36 93 172 10 18 82
144 159 280 l141 248 23 -22 c13 -13 24 -20 24 -16 0 4 33 -13 73 -37 92 -54
116 -60 156 -40 37 18 49 36 159 229 247 436 241 420 202 492 -11 21 -20 34
-20 30 0 -7 -17 1 -95 48 -22 13 -53 31 -70 39 -16 9 -48 27 -70 40 -22 14
-53 31 -70 39 -16 8 -40 24 -51 35 -12 12 -25 18 -28 15 -3 -4 -14 0 -23 8
-10 9 -29 21 -43 27 -14 7 -43 23 -65 37 -22 13 -53 31 -70 39 -16 9 -48 27
-70 40 -22 14 -53 31 -70 39 -16 8 -40 24 -51 35 -12 12 -25 18 -28 15 -3 -4
-14 0 -23 8 -10 9 -29 21 -43 28 -61 30 -90 47 -112 67 -13 11 -29 19 -36 16
-7 -2 -12 1 -12 6 0 5 -13 15 -30 22 -16 7 -30 17 -30 22 0 5 -4 7 -9 3 -5 -3
-12 -1 -16 5 -4 6 -11 8 -16 5 -5 -4 -9 -2 -9 2 0 20 -71 8 -99 -16z m289
-332 c96 -55 176 -102 179 -104 2 -2 -11 -33 -29 -69 -25 -52 -30 -72 -25 -98
9 -39 46 -86 63 -80 7 2 12 0 12 -5 0 -9 33 -8 66 2 12 4 32 25 45 47 13 22
34 52 45 66 l21 26 137 -80 c75 -43 152 -87 170 -96 50 -26 62 -44 42 -66 -9
-10 -16 -22 -16 -26 0 -10 -170 -305 -180 -311 -5 -3 -16 2 -24 11 -9 8 -16
13 -16 10 0 -7 -404 225 -411 236 -3 6 -10 10 -15 10 -17 1 -54 21 -54 30 0 4
-3 7 -7 6 -8 -2 -75 31 -83 41 -3 3 -31 20 -62 36 -32 17 -58 33 -58 38 0 4
-3 6 -7 5 -14 -4 -153 77 -153 88 0 7 -8 11 -17 10 -29 -2 -28 1 149 307 21
37 42 67 46 67 4 0 86 -45 182 -101z m-180 -645 c0 8 88 -40 113 -62 10 -9 25
-17 34 -18 8 -2 25 -12 37 -23 13 -12 25 -19 28 -16 3 3 21 -4 41 -17 19 -13
43 -28 53 -34 18 -11 18 -13 -4 -57 -23 -43 -25 -45 -62 -40 -22 3 -47 2 -57
-2 -10 -5 -21 -8 -25 -7 -3 1 -15 -19 -27 -43 -23 -49 -18 -81 20 -121 19 -21
19 -21 -6 -67 -24 -42 -28 -45 -51 -37 -18 7 -35 6 -59 -4 -18 -8 -35 -12 -37
-10 -3 2 -14 -15 -25 -37 -24 -47 -18 -86 17 -124 l20 -22 -25 -45 c-25 -46
-32 -49 -69 -33 -12 5 -28 2 -46 -8 -15 -9 -30 -14 -34 -10 -3 3 -6 -1 -6 -9
0 -9 -7 -21 -15 -28 -8 -7 -15 -25 -15 -40 0 -33 25 -97 40 -102 7 -2 1 -22
-15 -51 -19 -34 -32 -46 -44 -43 -52 16 -71 17 -71 6 0 -6 -4 -8 -10 -5 -5 3
-10 1 -10 -5 0 -6 -4 -9 -9 -6 -5 4 -17 -14 -26 -39 -20 -50 -14 -88 17 -122
l20 -21 -27 -45 c-24 -43 -28 -45 -60 -40 -68 11 -125 -38 -125 -107 0 -20 26
-69 43 -81 4 -3 -1 -26 -13 -50 l-22 -44 -59 0 c-52 0 -63 -3 -79 -25 -29 -38
-35 -82 -14 -121 9 -19 22 -37 27 -41 7 -4 4 -19 -9 -43 -19 -37 -52 -59 -67
-46 -10 10 -67 1 -67 -10 0 -5 -5 -8 -11 -7 -13 4 -49 -59 -49 -85 0 -22 30
-77 42 -77 15 0 8 -27 -16 -70 -20 -35 -25 -39 -37 -27 -8 7 -20 12 -27 9 -6
-2 -12 1 -12 7 0 5 -16 15 -35 22 -19 7 -35 17 -35 22 0 4 -4 5 -10 2 -5 -3
-10 -2 -10 4 0 6 -11 13 -25 17 -14 3 -25 10 -25 16 0 5 -4 6 -10 3 -5 -3 -10
-2 -10 4 0 6 -11 13 -25 17 -14 3 -25 10 -25 14 0 5 -16 14 -35 20 -19 6 -35
15 -35 20 0 5 -9 11 -20 15 -19 6 -19 7 3 50 22 45 22 45 68 40 36 -4 52 -1
72 15 42 33 76 120 47 120 -5 0 -10 5 -10 12 0 6 -9 22 -21 34 l-20 21 28 47
c25 42 43 58 43 39 0 -10 74 -8 90 2 6 4 22 25 36 47 l26 41 -18 41 c-10 22
-25 46 -32 51 -11 9 -11 16 -1 38 7 15 15 27 19 27 4 0 10 10 14 23 3 12 9 18
13 12 14 -18 86 -13 110 8 48 43 51 129 6 163 -17 12 -17 15 6 59 l24 46 48
-5 c42 -4 50 -1 77 25 43 43 48 73 19 129 -23 43 -23 49 -10 81 18 42 30 50
70 43 38 -7 86 18 102 53 19 42 13 99 -13 124 l-23 22 20 36 c27 46 32 49 75
45 65 -6 98 25 116 107 4 19 -2 34 -23 59 l-28 34 19 36 c22 40 48 69 48 55 0
-6 18 -10 40 -11 22 0 40 3 40 7 0 4 9 11 20 14 11 3 23 17 26 31 3 13 10 24
15 24 18 0 8 51 -17 89 l-25 39 22 46 22 47 23 -22 c13 -12 24 -19 24 -15z"/>
<path d="M1525 4570 c-4 -6 -10 -8 -15 -5 -17 10 -46 -35 -240 -367 -174 -299
-194 -338 -194 -378 0 -40 21 -80 192 -375 106 -181 201 -338 212 -350 20 -19
33 -20 432 -23 l411 -3 33 23 c19 13 34 26 34 30 0 4 64 117 142 250 77 134
151 261 164 283 12 22 34 60 48 85 40 70 35 100 -39 228 -36 61 -65 114 -65
117 0 3 -5 11 -10 18 -18 20 -240 406 -240 416 0 5 -7 11 -15 15 -8 3 -15 12
-15 20 0 9 -6 13 -14 10 -8 -3 -17 -1 -21 5 -9 15 -791 15 -800 1z m863 -474
c83 -145 152 -269 152 -276 0 -6 -43 -87 -96 -178 -53 -92 -121 -210 -151
-262 l-55 -95 -320 5 -320 5 -34 60 c-19 33 -38 69 -44 80 -5 11 -21 38 -34
60 -14 22 -31 51 -39 65 -7 14 -23 41 -34 60 -11 19 -37 64 -57 100 -21 36
-42 69 -47 74 -15 16 -11 34 18 79 14 23 40 67 56 97 16 30 36 62 43 71 8 8
14 20 14 25 0 5 15 32 33 59 17 28 38 61 45 75 7 14 21 39 32 55 11 17 25 41
30 55 23 52 12 50 344 50 l311 0 153 -264z"/>
<path d="M1784 4230 c-112 -40 -189 -109 -243 -220 -35 -72 -36 -79 -36 -185
0 -102 2 -115 31 -175 43 -90 123 -171 210 -212 87 -41 211 -51 293 -23 144
48 255 159 286 288 4 15 11 29 15 32 11 7 4 166 -9 198 -6 16 -11 34 -11 40 0
35 -77 139 -146 197 -88 75 -270 103 -390 60z m201 -200 c6 -1 13 -2 18 -1 4
0 7 -2 7 -7 0 -4 14 -13 31 -21 88 -39 120 -199 58 -294 -24 -36 -76 -77 -103
-81 -8 -1 -18 -4 -20 -7 -6 -5 -90 -2 -116 4 -33 8 -57 22 -86 51 -45 45 -57
73 -60 141 -2 48 2 70 23 112 22 43 35 57 81 80 49 25 120 35 167 23z"/>
<path d="M835 2910 c-30 -12 -59 -47 -220 -265 -81 -110 -182 -246 -224 -301
-42 -56 -83 -112 -91 -124 -8 -12 -22 -30 -30 -40 -8 -10 -22 -28 -30 -40 -8
-12 -22 -30 -30 -40 -8 -10 -22 -28 -30 -41 -8 -12 -48 -67 -89 -122 -87 -118
-97 -143 -81 -192 9 -28 40 -55 168 -151 86 -64 162 -122 168 -130 6 -8 16
-14 23 -14 6 0 14 -7 17 -15 4 -8 13 -15 20 -15 8 0 17 -7 20 -15 4 -8 10 -12
15 -10 4 3 14 -3 21 -15 7 -11 19 -20 26 -20 7 0 15 -7 18 -15 4 -8 13 -15 20
-15 8 0 17 -7 20 -15 4 -8 10 -12 15 -9 5 3 9 0 9 -5 0 -6 3 -10 8 -9 4 0 15
-2 24 -6 10 -5 24 -6 30 -3 7 2 18 6 23 7 11 3 85 77 85 85 0 12 82 114 95
119 8 3 21 -4 28 -14 8 -11 16 -17 20 -14 3 3 10 -4 17 -15 6 -12 15 -19 20
-16 5 3 14 -4 20 -15 6 -11 15 -18 20 -15 5 3 14 -4 20 -15 6 -11 15 -18 21
-15 5 4 12 -1 15 -9 3 -9 12 -16 20 -16 7 0 18 -9 24 -20 6 -11 15 -18 21 -15
5 4 12 -1 15 -9 3 -9 13 -16 20 -16 8 0 17 -7 20 -15 4 -8 13 -15 20 -15 8 0
17 -7 20 -15 4 -8 13 -15 20 -15 8 0 17 -7 20 -15 4 -8 13 -15 20 -15 8 0 17
-7 20 -15 4 -8 12 -15 19 -15 7 0 15 -7 19 -15 3 -8 12 -15 19 -15 8 0 27 -13
43 -30 16 -16 32 -30 36 -30 12 0 98 -63 98 -72 0 -4 7 -8 15 -8 9 0 18 -7 21
-15 4 -8 13 -15 20 -15 8 0 17 -7 20 -15 4 -8 13 -15 20 -15 8 0 17 -7 20 -15
4 -8 13 -15 20 -15 8 0 17 -7 20 -15 4 -8 12 -15 18 -15 7 0 26 -13 42 -30 16
-16 34 -30 40 -30 7 0 14 -7 18 -15 3 -8 12 -15 19 -15 8 0 27 -13 43 -30 16
-16 34 -30 40 -30 6 0 24 -13 40 -30 16 -16 34 -30 40 -30 7 0 14 -7 18 -15 3
-8 12 -15 20 -15 7 0 16 -7 20 -15 3 -8 12 -15 20 -15 7 0 16 -7 20 -15 3 -8
12 -15 21 -15 8 0 15 -4 15 -8 0 -8 95 -82 105 -82 3 0 19 -12 36 -27 17 -16
57 -46 89 -68 32 -22 139 -101 237 -176 98 -74 200 -150 227 -168 55 -38 109
-54 125 -38 6 6 11 8 11 4 0 -10 58 57 115 133 27 36 53 67 57 68 4 2 8 8 8
13 0 4 53 80 119 167 65 87 124 169 131 182 25 46 20 76 -20 124 -21 25 -40
43 -43 40 -3 -3 -12 3 -19 15 -7 12 -19 21 -26 21 -7 0 -15 7 -18 15 -4 8 -13
15 -20 15 -8 0 -17 7 -20 15 -4 8 -10 13 -14 10 -5 -3 -16 5 -24 17 -9 12 -16
18 -16 13 -1 -6 -10 1 -20 14 -11 13 -20 19 -20 15 -1 -5 -10 2 -21 16 -12 14
-24 24 -28 23 -9 -2 -171 120 -171 129 0 4 -7 8 -15 8 -9 0 -18 7 -21 15 -4 8
-13 15 -20 15 -8 0 -17 7 -20 15 -4 8 -13 15 -20 15 -8 0 -17 7 -20 15 -4 8
-13 15 -20 15 -8 0 -17 7 -20 15 -4 8 -13 15 -20 15 -8 0 -17 7 -20 15 -4 8
-13 15 -20 15 -8 0 -17 7 -20 15 -4 8 -13 15 -20 15 -8 0 -17 7 -20 15 -4 8
-10 13 -15 10 -4 -3 -13 4 -19 15 -6 11 -17 20 -26 20 -8 0 -17 7 -20 15 -4 8
-12 15 -20 15 -8 0 -14 5 -14 10 0 6 -6 10 -14 10 -8 0 -21 9 -29 20 -8 11
-17 17 -20 14 -4 -4 -9 1 -13 10 -3 9 -13 16 -20 16 -8 0 -17 7 -20 15 -4 8
-13 15 -20 15 -8 0 -17 7 -20 15 -4 8 -13 15 -20 15 -8 0 -17 6 -20 14 -3 8
-14 16 -25 19 -10 3 -19 12 -19 21 0 10 -6 13 -16 9 -10 -4 -17 1 -21 15 -3
13 -10 19 -20 15 -9 -4 -16 2 -20 15 -3 13 -10 19 -20 15 -9 -4 -16 2 -20 15
-3 12 -10 18 -19 15 -8 -3 -17 2 -20 11 -3 9 -13 16 -20 16 -8 0 -17 7 -20 15
-4 8 -13 15 -20 15 -8 0 -17 7 -20 15 -4 8 -12 15 -19 15 -7 0 -15 7 -19 15
-3 8 -12 15 -20 15 -7 0 -16 7 -20 15 -3 8 -10 15 -16 15 -12 0 -32 15 -58 43
-9 9 -22 17 -30 17 -7 0 -15 7 -18 15 -4 8 -10 15 -16 15 -5 0 -15 6 -22 13
-8 6 -24 19 -36 27 -12 8 -30 22 -40 30 -10 8 -28 22 -40 30 -12 8 -30 22 -40
30 -10 8 -28 22 -40 30 -21 14 -50 37 -77 60 -7 5 -15 10 -18 10 -3 0 -13 7
-22 16 -10 8 -36 30 -58 48 l-39 34 49 67 c28 36 55 72 61 79 6 6 15 22 18 34
4 12 12 22 17 22 16 0 10 37 -12 74 -13 23 -89 86 -220 183 -109 81 -199 150
-199 155 0 4 -7 8 -15 8 -9 0 -18 7 -21 15 -4 8 -13 15 -20 15 -8 0 -17 7 -20
15 -4 8 -13 15 -20 15 -8 0 -17 7 -20 15 -4 8 -10 12 -15 9 -5 -3 -9 -1 -9 3
0 12 -60 14 -85 3z m81 -265 c4 -8 13 -15 20 -15 8 0 17 -7 20 -15 4 -8 12
-15 18 -15 7 0 26 -13 42 -30 16 -16 33 -30 37 -30 9 0 31 -17 54 -42 9 -9 20
-15 24 -12 5 2 13 -5 19 -16 6 -11 15 -18 21 -15 5 4 12 -1 15 -9 3 -9 13 -16
20 -16 29 0 25 -29 -12 -81 -20 -29 -41 -58 -46 -64 -40 -48 -48 -59 -48 -64
0 -3 -10 -17 -23 -31 -12 -14 -32 -41 -44 -60 -12 -19 -30 -44 -40 -55 -10
-11 -30 -38 -45 -60 -24 -35 -43 -59 -88 -112 -5 -7 -10 -17 -10 -23 0 -6 -7
-13 -15 -16 -8 -4 -15 -13 -15 -20 0 -8 -7 -17 -15 -20 -8 -4 -15 -13 -15 -20
0 -8 -7 -17 -15 -20 -8 -4 -15 -13 -15 -20 0 -8 -7 -17 -15 -20 -8 -4 -15 -10
-15 -15 0 -17 -125 -178 -138 -179 -7 0 -15 7 -18 15 -4 8 -13 15 -20 15 -8 0
-17 7 -20 15 -4 8 -13 15 -20 15 -8 0 -17 7 -20 15 -4 8 -13 15 -20 15 -8 0
-17 7 -20 15 -4 8 -13 15 -20 15 -8 0 -17 7 -20 15 -4 8 -13 15 -20 15 -8 0
-17 7 -20 15 -4 8 -12 15 -19 15 -7 0 -16 7 -19 16 -3 8 -10 13 -15 9 -6 -3
-15 4 -21 15 -6 11 -17 20 -25 20 -8 0 -15 5 -15 11 0 7 211 297 246 338 2 2
31 -15 65 -38 34 -22 72 -41 85 -41 59 0 104 47 104 110 0 42 -23 79 -71 113
-43 31 -47 43 -24 72 8 11 42 58 76 104 34 47 66 89 71 95 19 24 44 56 62 80
21 30 34 33 42 11z m347 -660 c34 -30 37 -36 27 -55 -26 -48 12 -124 68 -140
30 -8 44 -6 79 11 l43 21 40 -29 c28 -19 38 -33 33 -43 -4 -8 -7 -34 -7 -57
-1 -50 22 -79 74 -94 31 -9 43 -8 78 9 l41 20 35 -25 c34 -24 35 -27 29 -74
-4 -37 -1 -58 13 -84 10 -18 22 -32 26 -29 4 3 8 0 8 -6 0 -6 5 -8 10 -5 6 4
17 1 25 -5 9 -7 22 -9 32 -5 10 5 21 7 26 7 4 -1 7 2 7 6 0 5 11 14 25 20 21
10 27 8 40 -11 8 -12 15 -17 15 -12 0 6 5 2 11 -8 6 -9 15 -14 21 -11 8 5 9 0
3 -17 -4 -13 -8 -41 -9 -63 0 -39 0 -39 71 -96 16 -13 63 -13 63 1 0 5 4 8 9
5 5 -4 11 -1 13 5 7 20 57 19 68 -2 6 -10 17 -19 25 -19 20 0 29 -20 16 -33
-17 -17 -13 -69 6 -97 22 -32 43 -54 43 -44 0 3 6 2 13 -3 18 -14 67 -15 67
-1 0 6 3 9 6 5 3 -3 16 3 28 14 21 20 21 20 37 0 9 -11 19 -18 21 -15 14 13
31 -34 32 -90 1 -48 6 -69 20 -85 11 -12 21 -19 24 -16 3 3 11 0 18 -5 17 -15
79 -6 99 14 21 21 22 21 67 -10 42 -29 43 -32 27 -68 -15 -33 -5 -67 30 -105
22 -24 38 -31 65 -31 35 0 73 15 89 35 4 6 12 3 21 -8 7 -9 18 -17 23 -17 5 0
17 -8 26 -17 14 -17 11 -24 -40 -93 -30 -41 -59 -77 -64 -78 -5 -2 -9 -10 -9
-18 0 -8 -7 -17 -15 -20 -8 -4 -15 -13 -15 -20 0 -8 -7 -17 -15 -20 -8 -4 -15
-13 -15 -20 0 -8 -7 -17 -15 -20 -8 -4 -15 -11 -15 -18 0 -18 -38 -46 -55 -40
-8 4 -15 12 -15 20 0 8 -3 13 -7 13 -32 -5 -48 25 -30 56 12 23 -6 86 -33 110
-22 20 -87 27 -107 12 -7 -5 -13 -6 -13 -1 0 4 -7 -1 -16 -12 -11 -13 -17 -15
-20 -6 -3 6 -14 12 -25 12 -10 0 -19 6 -19 14 0 7 -10 16 -22 19 -20 6 -20 7
-5 31 18 26 23 66 9 66 -4 0 -14 16 -21 36 -9 24 -18 34 -27 30 -8 -3 -14 -1
-14 4 0 17 -68 11 -104 -9 -34 -19 -35 -19 -56 -1 -12 10 -26 20 -32 22 -5 2
-11 34 -12 72 -1 61 -4 70 -29 92 -34 29 -86 32 -127 7 -28 -16 -30 -16 -69
11 -35 25 -40 32 -34 55 18 71 -7 125 -65 141 -30 8 -44 6 -79 -11 l-42 -20
-38 27 c-21 16 -40 29 -41 30 -2 2 4 16 14 32 11 20 14 36 9 48 -5 11 -9 26
-9 34 -1 17 -72 60 -101 60 -11 0 -35 -9 -54 -21 l-34 -20 -41 30 c-23 16 -39
36 -37 43 18 60 13 90 -22 129 -19 23 -30 27 -69 25 -30 -1 -54 -9 -68 -21
-21 -19 -23 -19 -35 -2 -6 9 -16 17 -21 17 -5 0 -17 9 -26 19 -13 15 -15 27
-8 50 22 77 -55 156 -127 132 -2 -1 -5 0 -7 2 -3 1 -16 -9 -30 -22 -14 -14
-26 -19 -26 -13 0 7 -7 12 -15 12 -8 0 -15 5 -15 10 0 6 -6 10 -14 10 -7 0
-19 6 -25 13 -8 11 18 52 117 185 70 94 129 171 132 171 3 0 22 -15 43 -34z"/>
<path d="M3870 1990 c0 -5 -6 -10 -13 -10 -26 0 -57 -47 -247 -375 -177 -305
-191 -333 -187 -370 3 -29 48 -115 162 -310 218 -375 241 -410 270 -423 34
-16 821 -17 830 -2 4 6 10 8 14 6 7 -5 67 92 205 327 25 43 46 80 46 83 0 2
16 28 35 58 19 30 35 58 35 61 0 4 9 19 19 34 39 55 81 146 81 176 -1 28 -14
55 -99 201 -19 33 -43 75 -54 94 -11 19 -28 49 -38 65 -10 17 -23 40 -29 53
-5 12 -24 46 -42 75 -18 29 -38 62 -45 73 -7 10 -23 40 -37 66 -37 68 -66 114
-66 105 0 -5 -10 -1 -22 7 -19 14 -76 16 -420 16 -259 0 -398 -4 -398 -10z
m726 -227 c6 -10 22 -39 37 -65 14 -25 37 -65 52 -87 14 -23 30 -52 36 -64 5
-12 18 -35 29 -52 11 -16 26 -43 35 -60 8 -16 26 -48 39 -70 75 -125 75 -121
23 -207 -12 -21 -32 -55 -44 -77 -12 -22 -65 -114 -118 -205 l-97 -166 -317 0
-316 0 -150 256 c-83 141 -151 262 -153 269 -2 7 6 28 17 46 11 19 32 57 46
84 15 28 33 57 41 66 8 8 14 19 14 23 0 4 37 70 83 147 45 77 86 149 92 159 9
19 22 20 325 20 289 0 316 -1 326 -17z"/>
<path d="M4180 1667 c0 -5 -7 -7 -15 -3 -8 3 -15 1 -15 -5 0 -6 -6 -9 -14 -6
-7 3 -19 0 -25 -6 -6 -6 -11 -7 -11 -1 0 5 -4 4 -8 -2 -10 -14 -85 -59 -94
-56 -5 1 -8 -4 -8 -10 0 -7 -16 -29 -36 -48 -33 -32 -62 -83 -94 -167 -12 -32
-16 -158 -7 -198 20 -83 106 -235 133 -235 7 0 22 -12 33 -26 12 -15 21 -23
21 -19 0 4 19 -4 43 -18 23 -13 48 -22 55 -20 6 3 12 0 12 -7 0 -6 5 -8 10 -5
6 4 16 2 23 -3 15 -12 166 -13 173 0 3 4 9 6 14 3 5 -3 21 0 37 7 15 6 33 12
38 12 6 1 18 8 28 17 9 9 29 22 44 30 92 48 180 225 178 354 -2 67 -25 148
-63 215 -37 65 -127 148 -180 164 -12 4 -22 12 -22 17 0 6 -4 8 -9 5 -5 -4
-22 -1 -38 5 -34 14 -203 18 -203 6z m106 -208 c3 -6 15 -9 25 -6 10 3 22 1
25 -4 3 -5 10 -7 15 -4 5 4 9 1 9 -4 0 -6 9 -11 20 -11 11 0 20 -7 20 -16 0
-8 5 -12 10 -9 6 3 13 -2 17 -12 4 -10 13 -22 20 -28 17 -13 41 -97 37 -127
-13 -74 -20 -92 -53 -128 -44 -48 -94 -70 -161 -70 -124 0 -207 80 -212 205
-2 35 16 95 38 128 27 41 81 80 102 72 6 -2 12 0 12 6 0 6 9 8 19 4 11 -3 22
-1 26 5 8 13 22 13 31 -1z"/>
</g>
</svg>
