<?xml version="1.0" standalone="no"?>
<!DOCTYPE svg PUBLIC "-//W3C//DTD SVG 20010904//EN"
 "http://www.w3.org/TR/2001/REC-SVG-20010904/DTD/svg10.dtd">
<svg version="1.0" xmlns="http://www.w3.org/2000/svg"
 width="728.000000pt" height="724.000000pt" viewBox="0 0 728.000000 724.000000"
 preserveAspectRatio="xMidYMid meet">

<g transform="translate(0.000000,724.000000) scale(0.100000,-0.100000)"
fill="#000000" stroke="none">
<path d="M3253 6795 c-60 -26 -68 -51 -70 -225 -1 -85 -2 -161 -2 -167 -1 -7
-13 -16 -28 -19 -50 -12 -236 -95 -308 -137 -256 -150 -488 -392 -619 -647
-86 -168 -136 -333 -171 -572 -3 -21 -11 -38 -18 -38 -148 -4 -182 -15 -205
-66 -8 -17 -12 -109 -12 -280 0 -280 4 -300 60 -329 18 -9 56 -15 98 -15 l69
0 7 -72 c19 -204 84 -433 172 -611 88 -178 173 -297 316 -441 48 -49 88 -90
88 -91 0 -1 -21 -10 -47 -20 -184 -68 -482 -249 -678 -411 -249 -204 -511
-519 -655 -787 -206 -382 -314 -772 -337 -1218 -5 -112 -4 -130 13 -157 37
-63 -157 -59 2724 -58 2429 1 2637 3 2666 18 42 23 54 56 54 154 0 227 -54
540 -137 799 -51 160 -171 421 -249 543 -19 29 -34 55 -34 57 0 3 -16 29 -37
58 -130 186 -221 294 -374 444 -152 149 -263 234 -500 386 -66 42 -273 146
-341 172 -27 10 -48 20 -48 24 0 3 28 31 63 62 71 64 204 231 265 334 129 218
218 492 238 733 l7 82 69 0 c38 0 84 6 103 14 61 26 65 45 65 330 0 171 -4
263 -12 280 -17 39 -84 67 -153 65 -63 -2 -75 6 -75 57 0 66 -32 214 -71 328
-157 464 -494 810 -959 986 l-95 36 0 165 c0 185 -7 208 -70 234 -48 21 -726
21 -772 0z m615 -584 c2 -325 1 -363 -13 -357 -136 52 -296 52 -427 1 -17 -7
-18 14 -18 359 l0 366 228 -2 227 -3 3 -364z m-685 -304 l-1 -244 -31 -49
c-69 -107 -97 -281 -67 -408 49 -207 213 -377 416 -431 132 -35 302 -11 421
60 87 52 111 73 168 145 56 71 78 116 101 208 39 153 15 302 -69 437 -24 40
-25 42 -25 283 -1 180 2 242 11 242 19 0 266 -128 298 -155 l30 -25 1 -236 c2
-155 6 -245 14 -264 27 -66 131 -77 183 -20 29 32 32 56 30 243 -1 37 2 67 6
67 15 -1 127 -167 176 -262 78 -149 145 -375 145 -487 l0 -26 -162 3 c-180 4
-226 -4 -257 -45 -40 -50 -19 -147 36 -172 16 -7 129 -11 323 -11 l300 0 0
-115 0 -115 -1590 0 -1590 0 0 115 0 115 308 0 c232 0 312 3 324 13 31 25 48
62 48 105 0 36 -5 49 -31 73 -40 37 -65 41 -253 37 l-158 -3 7 69 c15 151 79
341 170 500 42 73 134 205 145 206 3 0 6 -60 7 -133 2 -72 8 -144 14 -159 15
-36 71 -62 117 -54 21 3 49 18 65 34 l29 29 1 250 2 249 67 42 c65 42 243 131
263 132 6 0 9 -86 8 -243z m602 -275 c73 -35 127 -88 163 -162 23 -47 27 -68
27 -140 0 -73 -4 -94 -29 -147 -31 -69 -88 -128 -158 -165 -37 -20 -57 -23
-148 -23 -95 0 -110 3 -155 27 -67 35 -118 90 -152 163 -24 51 -28 73 -28 145
0 101 20 154 86 225 103 112 255 141 394 77z m1215 -1354 c0 -13 -7 -68 -15
-123 -95 -627 -563 -1114 -1155 -1201 -416 -60 -823 77 -1125 381 -55 55 -125
136 -156 180 -141 199 -239 464 -264 718 l-7 67 1361 0 1361 0 0 -22z m-2026
-1412 c386 -190 818 -207 1220 -49 50 19 119 51 154 70 67 37 75 38 160 6 l42
-16 0 -653 0 -654 -910 0 -910 0 0 654 0 653 53 21 c28 11 58 21 66 21 8 1 64
-23 125 -53z m-474 -696 l0 -600 -110 0 c-60 0 -110 3 -110 8 -4 52 -2 1063 1
1066 10 10 204 125 212 126 4 0 7 -270 7 -600z m2389 544 c42 -25 84 -51 94
-59 18 -13 19 -41 18 -542 -1 -290 -1 -531 -1 -535 0 -5 -49 -8 -110 -8 l-110
0 0 601 c0 558 1 601 17 595 9 -4 51 -27 92 -52z m-2839 -694 l0 -450 -80 0
c-74 0 -82 -2 -112 -29 l-33 -29 -3 -426 -3 -426 -329 0 -330 0 0 48 c0 71 35
303 65 427 109 462 356 894 697 1219 67 64 123 116 125 116 1 0 3 -202 3 -450z
m3334 308 c386 -385 620 -843 710 -1388 8 -52 18 -137 22 -187 l7 -93 -332 0
-331 0 0 405 c0 438 -2 454 -53 487 -16 11 -51 18 -98 20 l-74 3 -3 443 c-1
300 1 442 8 442 6 0 70 -60 144 -132z m-251 -987 l97 -1 0 -340 0 -340 -1590
0 -1590 0 0 343 0 342 1493 -2 c820 0 1536 -2 1590 -2z"/>
<path d="M3055 4126 c-114 -51 -130 -219 -27 -289 50 -34 76 -40 129 -32 54 8
116 60 133 111 24 72 -10 166 -72 204 -39 23 -117 26 -163 6z"/>
<path d="M4074 4126 c-62 -28 -101 -106 -89 -182 9 -62 73 -129 131 -139 57
-9 113 8 153 47 41 40 51 65 51 127 0 53 -25 99 -72 134 -35 26 -130 33 -174
13z"/>
</g>
</svg>
