<?xml version="1.0" standalone="no"?>
<!DOCTYPE svg PUBLIC "-//W3C//DTD SVG 20010904//EN"
 "http://www.w3.org/TR/2001/REC-SVG-20010904/DTD/svg10.dtd">
<svg version="1.0" xmlns="http://www.w3.org/2000/svg"
 width="512.000000pt" height="512.000000pt" viewBox="0 0 512.000000 512.000000"
 preserveAspectRatio="xMidYMid meet">

<g transform="translate(0.000000,512.000000) scale(0.100000,-0.100000)"
fill="#000000" stroke="none">
<path d="M3649 5100 c-280 -69 -500 -283 -579 -562 -27 -94 -36 -253 -21 -341
9 -53 9 -72 -1 -90 -7 -12 -116 -123 -243 -247 l-230 -225 -34 33 c-122 118
-328 115 -451 -8 -39 -39 -80 -107 -80 -133 0 -10 -20 -13 -82 -13 -69 0 -93
-4 -138 -25 -74 -34 -120 -76 -156 -141 -27 -49 -29 -61 -29 -156 l0 -102 -52
-15 c-93 -27 -187 -121 -213 -213 -14 -51 -12 -159 4 -204 l13 -36 -40 -18
c-52 -24 -119 -92 -148 -151 -19 -38 -24 -67 -26 -136 -2 -79 -6 -95 -40 -164
-37 -74 -38 -80 -38 -182 0 -89 4 -114 23 -155 33 -72 94 -147 146 -180 43
-27 45 -31 51 -85 27 -260 71 -457 149 -673 71 -195 76 -227 82 -473 3 -121
10 -235 16 -254 14 -45 74 -110 123 -132 37 -17 79 -19 585 -19 608 0 588 -2
657 71 44 47 60 90 68 189 9 102 43 218 84 282 17 26 157 205 313 399 156 194
296 368 312 388 73 92 125 251 126 382 0 88 -95 697 -121 776 -23 71 -80 162
-140 227 -64 70 -163 132 -284 176 -60 22 -130 48 -153 56 l-44 16 274 277
c150 152 282 281 294 288 16 9 38 10 90 1 85 -13 248 -5 329 17 89 24 232 97
302 155 121 99 219 248 263 400 31 107 39 294 16 355 -29 75 -99 113 -183 100
-43 -6 -58 -18 -194 -151 -98 -97 -154 -144 -169 -144 -14 0 -65 42 -148 122
-135 130 -157 157 -148 191 3 12 63 83 134 157 71 74 134 145 140 157 20 36
15 121 -9 160 -36 58 -81 73 -211 72 -74 0 -139 -7 -189 -19z m119 -278 c-143
-146 -165 -189 -155 -289 8 -79 39 -122 199 -279 155 -152 176 -164 279 -164
89 1 130 26 267 168 l124 127 -5 -91 c-6 -106 -41 -219 -93 -305 -44 -73 -163
-186 -239 -226 -124 -65 -242 -84 -432 -69 -162 14 -147 23 -491 -318 -262
-259 -295 -289 -305 -273 -7 10 -64 100 -128 200 l-117 182 258 260 c142 143
264 271 271 285 11 19 14 76 14 225 0 192 1 203 27 274 91 248 321 418 572
420 l79 1 -125 -128z m-1382 -1251 c36 -17 54 -39 154 -197 63 -99 128 -202
146 -230 l33 -52 -62 20 c-67 21 -128 19 -179 -6 l-28 -15 -141 157 -141 157
5 48 c5 53 39 99 92 123 41 18 73 17 121 -5z m-404 -239 c25 -11 91 -77 198
-197 129 -144 160 -184 154 -200 -3 -11 -9 -70 -11 -131 -4 -84 -1 -125 10
-165 9 -29 15 -54 14 -56 -7 -6 -537 500 -556 530 -28 45 -28 118 -1 162 22
36 90 75 130 75 14 0 42 -8 62 -18z m945 -503 c191 -72 367 -142 391 -156 64
-38 137 -118 173 -192 28 -57 39 -104 81 -356 62 -373 68 -449 39 -543 -28
-92 -52 -126 -391 -542 -157 -193 -301 -378 -321 -411 -50 -82 -90 -208 -96
-299 -7 -108 -19 -139 -59 -156 -44 -18 -952 -21 -1004 -3 -53 19 -60 51 -60
269 0 228 -9 279 -84 487 -76 206 -118 383 -141 584 l-6 57 58 4 c34 2 85 16
123 33 57 26 95 59 308 267 186 183 257 245 301 268 69 34 144 113 163 172 12
36 20 44 48 49 29 6 40 2 74 -26 54 -43 117 -75 251 -125 60 -23 117 -46 128
-51 25 -14 57 -69 57 -99 0 -42 -37 -90 -83 -108 -91 -35 -256 -122 -327 -173
-214 -151 -368 -402 -387 -630 -5 -59 -3 -69 16 -88 28 -28 93 -29 120 -2 11
11 23 37 26 58 24 143 96 299 185 396 101 110 210 183 385 257 160 68 229 155
229 290 0 142 -64 219 -251 295 -65 27 -140 59 -167 73 -71 35 -138 103 -176
178 -29 57 -35 78 -38 155 -6 123 22 193 80 198 4 1 164 -58 355 -130z m-1240
82 c18 -5 54 -26 80 -46 92 -70 483 -439 483 -455 0 -29 -43 -84 -80 -102 -75
-38 -86 -33 -351 153 -134 94 -255 180 -267 192 -65 60 -69 153 -11 213 29 30
68 50 104 53 6 1 25 -3 42 -8z m-189 -450 c31 -9 415 -272 428 -293 13 -20
-28 -98 -64 -123 -60 -41 -98 -35 -289 47 -92 39 -180 80 -196 91 -75 51 -88
169 -26 233 29 30 68 50 104 53 6 1 25 -3 43 -8z m-37 -507 c85 -36 169 -72
188 -80 l34 -14 -34 -36 c-103 -108 -243 -112 -345 -10 -58 59 -81 120 -70
187 9 58 14 62 46 39 15 -11 97 -49 181 -86z"/>
<path d="M2127 4513 c-4 -3 -7 -18 -7 -32 0 -20 22 -49 89 -115 76 -75 92 -87
117 -84 24 2 30 8 32 32 3 25 -9 41 -84 117 -66 67 -95 89 -115 89 -14 0 -29
-3 -32 -7z"/>
<path d="M2524 4427 c-3 -8 -4 -43 -2 -78 l3 -64 35 0 35 0 0 75 0 75 -33 3
c-21 2 -34 -2 -38 -11z"/>
<path d="M2047 4193 c-4 -3 -7 -19 -7 -35 0 -25 9 -32 90 -73 95 -48 133 -55
148 -29 19 34 0 55 -89 100 -83 41 -127 53 -142 37z"/>
</g>
</svg>
